<mxfile host="65bd71144e">
    <diagram id="5az9yC1reQKF0CvU9r7z" name="Page-1">
        <mxGraphModel dx="820" dy="473" grid="1" gridSize="10" guides="1" tooltips="1" connect="1" arrows="1" fold="1" page="1" pageScale="1" pageWidth="850" pageHeight="1100" math="0" shadow="0">
            <root>
                <mxCell id="0"/>
                <mxCell id="1" parent="0"/>
                <mxCell id="2" value="User" style="rounded=0;whiteSpace=wrap;html=1;" parent="1" vertex="1">
                    <mxGeometry x="50" y="210" width="120" height="60" as="geometry"/>
                </mxCell>
                <mxCell id="3" value="Omazon- ecommerce website" style="ellipse;whiteSpace=wrap;html=1;aspect=fixed;" parent="1" vertex="1">
                    <mxGeometry x="310" y="200" width="80" height="80" as="geometry"/>
                </mxCell>
                <mxCell id="4" value="Admin" style="rounded=0;whiteSpace=wrap;html=1;" parent="1" vertex="1">
                    <mxGeometry x="560" y="210" width="120" height="60" as="geometry"/>
                </mxCell>
                <mxCell id="5" value="" style="endArrow=classic;html=1;exitX=1.017;exitY=0.383;exitDx=0;exitDy=0;exitPerimeter=0;" parent="1" source="2" edge="1">
                    <mxGeometry width="50" height="50" relative="1" as="geometry">
                        <mxPoint x="200" y="230" as="sourcePoint"/>
                        <mxPoint x="310" y="230" as="targetPoint"/>
                    </mxGeometry>
                </mxCell>
                <mxCell id="9" value="User personal info,&amp;nbsp;&lt;br&gt;choice of category" style="edgeLabel;html=1;align=center;verticalAlign=middle;resizable=0;points=[];" parent="5" vertex="1" connectable="0">
                    <mxGeometry x="-0.4" y="2" relative="1" as="geometry">
                        <mxPoint x="27" y="-18" as="offset"/>
                    </mxGeometry>
                </mxCell>
                <mxCell id="6" value="" style="endArrow=classic;html=1;entryX=0.992;entryY=0.65;entryDx=0;entryDy=0;entryPerimeter=0;exitX=0.025;exitY=0.6;exitDx=0;exitDy=0;exitPerimeter=0;" parent="1" source="3" target="2" edge="1">
                    <mxGeometry width="50" height="50" relative="1" as="geometry">
                        <mxPoint x="300" y="260" as="sourcePoint"/>
                        <mxPoint x="350" y="210" as="targetPoint"/>
                    </mxGeometry>
                </mxCell>
                <mxCell id="10" value="user account,&lt;br&gt;view articles" style="edgeLabel;html=1;align=center;verticalAlign=middle;resizable=0;points=[];" parent="6" vertex="1" connectable="0">
                    <mxGeometry x="-0.2584" y="2" relative="1" as="geometry">
                        <mxPoint x="-19" y="20" as="offset"/>
                    </mxGeometry>
                </mxCell>
                <mxCell id="7" value="" style="endArrow=classic;html=1;entryX=0;entryY=0.25;entryDx=0;entryDy=0;exitX=1;exitY=0.338;exitDx=0;exitDy=0;exitPerimeter=0;" parent="1" source="3" target="4" edge="1">
                    <mxGeometry width="50" height="50" relative="1" as="geometry">
                        <mxPoint x="300" y="260" as="sourcePoint"/>
                        <mxPoint x="350" y="210" as="targetPoint"/>
                    </mxGeometry>
                </mxCell>
                <mxCell id="11" value="all users and articles data" style="edgeLabel;html=1;align=center;verticalAlign=middle;resizable=0;points=[];" parent="7" vertex="1" connectable="0">
                    <mxGeometry x="-0.4005" y="-3" relative="1" as="geometry">
                        <mxPoint x="28" y="-19" as="offset"/>
                    </mxGeometry>
                </mxCell>
                <mxCell id="8" value="" style="endArrow=classic;html=1;entryX=0.975;entryY=0.638;entryDx=0;entryDy=0;entryPerimeter=0;exitX=0.017;exitY=0.65;exitDx=0;exitDy=0;exitPerimeter=0;" parent="1" source="4" target="3" edge="1">
                    <mxGeometry width="50" height="50" relative="1" as="geometry">
                        <mxPoint x="300" y="260" as="sourcePoint"/>
                        <mxPoint x="350" y="210" as="targetPoint"/>
                    </mxGeometry>
                </mxCell>
                <mxCell id="12" value="new article details,&lt;br&gt;manage users and articls" style="edgeLabel;html=1;align=center;verticalAlign=middle;resizable=0;points=[];" parent="8" vertex="1" connectable="0">
                    <mxGeometry x="0.4031" y="1" relative="1" as="geometry">
                        <mxPoint x="29" y="19" as="offset"/>
                    </mxGeometry>
                </mxCell>
            </root>
        </mxGraphModel>
    </diagram>
    <diagram id="NYPQE8q8xc37I0SnrrDP" name="Page-2">
        <mxGraphModel dx="1491" dy="860" grid="1" gridSize="10" guides="1" tooltips="1" connect="1" arrows="1" fold="1" page="1" pageScale="1" pageWidth="850" pageHeight="1100" math="0" shadow="0">
            <root>
                <mxCell id="sQehPe5pb8-Fc1ebHOuA-0"/>
                <mxCell id="sQehPe5pb8-Fc1ebHOuA-1" parent="sQehPe5pb8-Fc1ebHOuA-0"/>
                <mxCell id="jh315Kit64O2KbCH2R6c-0" value="User" style="rounded=1;whiteSpace=wrap;html=1;" vertex="1" parent="sQehPe5pb8-Fc1ebHOuA-1">
                    <mxGeometry x="30" y="40" width="90" height="50" as="geometry"/>
                </mxCell>
                <mxCell id="jh315Kit64O2KbCH2R6c-2" value="1&lt;br&gt;Create Account" style="ellipse;whiteSpace=wrap;html=1;" vertex="1" parent="sQehPe5pb8-Fc1ebHOuA-1">
                    <mxGeometry x="320" y="30" width="120" height="60" as="geometry"/>
                </mxCell>
                <mxCell id="jh315Kit64O2KbCH2R6c-4" value="2&lt;br&gt;Login Account" style="ellipse;whiteSpace=wrap;html=1;" vertex="1" parent="sQehPe5pb8-Fc1ebHOuA-1">
                    <mxGeometry x="320" y="110" width="120" height="60" as="geometry"/>
                </mxCell>
                <mxCell id="jh315Kit64O2KbCH2R6c-5" value="3&lt;br&gt;subscribe to plans" style="ellipse;whiteSpace=wrap;html=1;" vertex="1" parent="sQehPe5pb8-Fc1ebHOuA-1">
                    <mxGeometry x="320" y="190" width="120" height="60" as="geometry"/>
                </mxCell>
                <mxCell id="jh315Kit64O2KbCH2R6c-6" value="4&lt;br&gt;manage profile" style="ellipse;whiteSpace=wrap;html=1;" vertex="1" parent="sQehPe5pb8-Fc1ebHOuA-1">
                    <mxGeometry x="320" y="270" width="120" height="60" as="geometry"/>
                </mxCell>
                <mxCell id="jh315Kit64O2KbCH2R6c-7" value="" style="endArrow=classic;html=1;exitX=0.5;exitY=1;exitDx=0;exitDy=0;entryX=0;entryY=0.5;entryDx=0;entryDy=0;" edge="1" parent="sQehPe5pb8-Fc1ebHOuA-1" source="jh315Kit64O2KbCH2R6c-0" target="jh315Kit64O2KbCH2R6c-72">
                    <mxGeometry width="50" height="50" relative="1" as="geometry">
                        <mxPoint x="320" y="260" as="sourcePoint"/>
                        <mxPoint x="325" y="320" as="targetPoint"/>
                        <Array as="points">
                            <mxPoint x="75" y="370"/>
                        </Array>
                    </mxGeometry>
                </mxCell>
                <mxCell id="jh315Kit64O2KbCH2R6c-19" value="User details and message" style="edgeLabel;html=1;align=center;verticalAlign=middle;resizable=0;points=[];" vertex="1" connectable="0" parent="jh315Kit64O2KbCH2R6c-7">
                    <mxGeometry x="0.3934" y="1" relative="1" as="geometry">
                        <mxPoint x="18" as="offset"/>
                    </mxGeometry>
                </mxCell>
                <mxCell id="jh315Kit64O2KbCH2R6c-8" value="" style="endArrow=classic;html=1;exitX=1;exitY=0.25;exitDx=0;exitDy=0;entryX=0.033;entryY=0.367;entryDx=0;entryDy=0;entryPerimeter=0;" edge="1" parent="sQehPe5pb8-Fc1ebHOuA-1" source="jh315Kit64O2KbCH2R6c-0" target="jh315Kit64O2KbCH2R6c-2">
                    <mxGeometry width="50" height="50" relative="1" as="geometry">
                        <mxPoint x="320" y="260" as="sourcePoint"/>
                        <mxPoint x="370" y="210" as="targetPoint"/>
                    </mxGeometry>
                </mxCell>
                <mxCell id="jh315Kit64O2KbCH2R6c-15" value="User info" style="edgeLabel;html=1;align=center;verticalAlign=middle;resizable=0;points=[];" vertex="1" connectable="0" parent="jh315Kit64O2KbCH2R6c-8">
                    <mxGeometry x="-0.1567" y="1" relative="1" as="geometry">
                        <mxPoint x="4" y="-1" as="offset"/>
                    </mxGeometry>
                </mxCell>
                <mxCell id="jh315Kit64O2KbCH2R6c-9" value="" style="endArrow=classic;html=1;entryX=0.042;entryY=0.35;entryDx=0;entryDy=0;entryPerimeter=0;" edge="1" parent="sQehPe5pb8-Fc1ebHOuA-1" target="jh315Kit64O2KbCH2R6c-4">
                    <mxGeometry width="50" height="50" relative="1" as="geometry">
                        <mxPoint x="80" y="131" as="sourcePoint"/>
                        <mxPoint x="370" y="210" as="targetPoint"/>
                    </mxGeometry>
                </mxCell>
                <mxCell id="jh315Kit64O2KbCH2R6c-17" value="user credentials" style="edgeLabel;html=1;align=center;verticalAlign=middle;resizable=0;points=[];" vertex="1" connectable="0" parent="jh315Kit64O2KbCH2R6c-9">
                    <mxGeometry x="-0.2165" y="-2" relative="1" as="geometry">
                        <mxPoint x="24" y="-3" as="offset"/>
                    </mxGeometry>
                </mxCell>
                <mxCell id="jh315Kit64O2KbCH2R6c-10" value="" style="endArrow=classic;html=1;entryX=0.025;entryY=0.35;entryDx=0;entryDy=0;entryPerimeter=0;" edge="1" parent="sQehPe5pb8-Fc1ebHOuA-1" target="jh315Kit64O2KbCH2R6c-5">
                    <mxGeometry width="50" height="50" relative="1" as="geometry">
                        <mxPoint x="80" y="211" as="sourcePoint"/>
                        <mxPoint x="370" y="210" as="targetPoint"/>
                    </mxGeometry>
                </mxCell>
                <mxCell id="jh315Kit64O2KbCH2R6c-21" value="users choice of subscription" style="edgeLabel;html=1;align=center;verticalAlign=middle;resizable=0;points=[];" vertex="1" connectable="0" parent="jh315Kit64O2KbCH2R6c-10">
                    <mxGeometry x="0.0947" y="-1" relative="1" as="geometry">
                        <mxPoint as="offset"/>
                    </mxGeometry>
                </mxCell>
                <mxCell id="jh315Kit64O2KbCH2R6c-11" value="" style="endArrow=classic;html=1;exitX=0.042;exitY=0.667;exitDx=0;exitDy=0;exitPerimeter=0;" edge="1" parent="sQehPe5pb8-Fc1ebHOuA-1" source="jh315Kit64O2KbCH2R6c-5">
                    <mxGeometry width="50" height="50" relative="1" as="geometry">
                        <mxPoint x="320" y="260" as="sourcePoint"/>
                        <mxPoint x="80" y="230" as="targetPoint"/>
                    </mxGeometry>
                </mxCell>
                <mxCell id="jh315Kit64O2KbCH2R6c-22" value="show related articles" style="edgeLabel;html=1;align=center;verticalAlign=middle;resizable=0;points=[];" vertex="1" connectable="0" parent="jh315Kit64O2KbCH2R6c-11">
                    <mxGeometry x="0.2409" y="1" relative="1" as="geometry">
                        <mxPoint x="47" as="offset"/>
                    </mxGeometry>
                </mxCell>
                <mxCell id="jh315Kit64O2KbCH2R6c-12" value="" style="endArrow=classic;html=1;exitX=0.017;exitY=0.65;exitDx=0;exitDy=0;exitPerimeter=0;" edge="1" parent="sQehPe5pb8-Fc1ebHOuA-1" source="jh315Kit64O2KbCH2R6c-4">
                    <mxGeometry width="50" height="50" relative="1" as="geometry">
                        <mxPoint x="320" y="260" as="sourcePoint"/>
                        <mxPoint x="80" y="150" as="targetPoint"/>
                    </mxGeometry>
                </mxCell>
                <mxCell id="jh315Kit64O2KbCH2R6c-18" value="logged in to poratl" style="edgeLabel;html=1;align=center;verticalAlign=middle;resizable=0;points=[];" vertex="1" connectable="0" parent="jh315Kit64O2KbCH2R6c-12">
                    <mxGeometry x="0.1241" relative="1" as="geometry">
                        <mxPoint x="14" as="offset"/>
                    </mxGeometry>
                </mxCell>
                <mxCell id="jh315Kit64O2KbCH2R6c-13" value="" style="endArrow=classic;html=1;exitX=0.008;exitY=0.633;exitDx=0;exitDy=0;exitPerimeter=0;" edge="1" parent="sQehPe5pb8-Fc1ebHOuA-1" source="jh315Kit64O2KbCH2R6c-2">
                    <mxGeometry width="50" height="50" relative="1" as="geometry">
                        <mxPoint x="320" y="260" as="sourcePoint"/>
                        <mxPoint x="120" y="68" as="targetPoint"/>
                    </mxGeometry>
                </mxCell>
                <mxCell id="jh315Kit64O2KbCH2R6c-16" value="account generated" style="edgeLabel;html=1;align=center;verticalAlign=middle;resizable=0;points=[];" vertex="1" connectable="0" parent="jh315Kit64O2KbCH2R6c-13">
                    <mxGeometry x="-0.2341" y="2" relative="1" as="geometry">
                        <mxPoint x="-24" y="-5" as="offset"/>
                    </mxGeometry>
                </mxCell>
                <mxCell id="jh315Kit64O2KbCH2R6c-14" value="" style="endArrow=classic;html=1;exitX=0;exitY=0.65;exitDx=0;exitDy=0;exitPerimeter=0;" edge="1" parent="sQehPe5pb8-Fc1ebHOuA-1" source="jh315Kit64O2KbCH2R6c-6">
                    <mxGeometry width="50" height="50" relative="1" as="geometry">
                        <mxPoint x="320" y="260" as="sourcePoint"/>
                        <mxPoint x="80" y="310" as="targetPoint"/>
                    </mxGeometry>
                </mxCell>
                <mxCell id="jh315Kit64O2KbCH2R6c-20" value="save info" style="edgeLabel;html=1;align=center;verticalAlign=middle;resizable=0;points=[];" vertex="1" connectable="0" parent="jh315Kit64O2KbCH2R6c-14">
                    <mxGeometry x="0.2501" y="3" relative="1" as="geometry">
                        <mxPoint x="30" as="offset"/>
                    </mxGeometry>
                </mxCell>
                <mxCell id="jh315Kit64O2KbCH2R6c-23" value="Admin" style="rounded=1;whiteSpace=wrap;html=1;" vertex="1" parent="sQehPe5pb8-Fc1ebHOuA-1">
                    <mxGeometry x="30" y="410" width="90" height="50" as="geometry"/>
                </mxCell>
                <mxCell id="jh315Kit64O2KbCH2R6c-25" value="1&lt;br&gt;Manage Articles" style="ellipse;whiteSpace=wrap;html=1;" vertex="1" parent="sQehPe5pb8-Fc1ebHOuA-1">
                    <mxGeometry x="320" y="420" width="120" height="60" as="geometry"/>
                </mxCell>
                <mxCell id="jh315Kit64O2KbCH2R6c-26" value="2&lt;br&gt;Manage subscription" style="ellipse;whiteSpace=wrap;html=1;" vertex="1" parent="sQehPe5pb8-Fc1ebHOuA-1">
                    <mxGeometry x="320" y="500" width="120" height="60" as="geometry"/>
                </mxCell>
                <mxCell id="jh315Kit64O2KbCH2R6c-27" value="3&lt;br&gt;Delete User" style="ellipse;whiteSpace=wrap;html=1;" vertex="1" parent="sQehPe5pb8-Fc1ebHOuA-1">
                    <mxGeometry x="320" y="580" width="120" height="60" as="geometry"/>
                </mxCell>
                <mxCell id="jh315Kit64O2KbCH2R6c-28" value="" style="endArrow=classic;html=1;exitX=0.5;exitY=1;exitDx=0;exitDy=0;entryX=0;entryY=0.5;entryDx=0;entryDy=0;" edge="1" parent="sQehPe5pb8-Fc1ebHOuA-1" source="jh315Kit64O2KbCH2R6c-23" target="jh315Kit64O2KbCH2R6c-27">
                    <mxGeometry width="50" height="50" relative="1" as="geometry">
                        <mxPoint x="320" y="470" as="sourcePoint"/>
                        <mxPoint x="370" y="420" as="targetPoint"/>
                        <Array as="points">
                            <mxPoint x="75" y="610"/>
                        </Array>
                    </mxGeometry>
                </mxCell>
                <mxCell id="jh315Kit64O2KbCH2R6c-38" value="user details" style="edgeLabel;html=1;align=center;verticalAlign=middle;resizable=0;points=[];" vertex="1" connectable="0" parent="jh315Kit64O2KbCH2R6c-28">
                    <mxGeometry x="0.2911" y="1" relative="1" as="geometry">
                        <mxPoint as="offset"/>
                    </mxGeometry>
                </mxCell>
                <mxCell id="jh315Kit64O2KbCH2R6c-29" value="" style="endArrow=classic;html=1;exitX=1;exitY=0.5;exitDx=0;exitDy=0;entryX=0.033;entryY=0.25;entryDx=0;entryDy=0;entryPerimeter=0;" edge="1" parent="sQehPe5pb8-Fc1ebHOuA-1" source="jh315Kit64O2KbCH2R6c-23" target="jh315Kit64O2KbCH2R6c-25">
                    <mxGeometry width="50" height="50" relative="1" as="geometry">
                        <mxPoint x="320" y="470" as="sourcePoint"/>
                        <mxPoint x="370" y="420" as="targetPoint"/>
                    </mxGeometry>
                </mxCell>
                <mxCell id="jh315Kit64O2KbCH2R6c-34" value="Article details" style="edgeLabel;html=1;align=center;verticalAlign=middle;resizable=0;points=[];" vertex="1" connectable="0" parent="jh315Kit64O2KbCH2R6c-29">
                    <mxGeometry x="-0.3332" y="1" relative="1" as="geometry">
                        <mxPoint as="offset"/>
                    </mxGeometry>
                </mxCell>
                <mxCell id="jh315Kit64O2KbCH2R6c-30" value="" style="endArrow=classic;html=1;entryX=1;entryY=0.75;entryDx=0;entryDy=0;exitX=0;exitY=0.5;exitDx=0;exitDy=0;" edge="1" parent="sQehPe5pb8-Fc1ebHOuA-1" source="jh315Kit64O2KbCH2R6c-25" target="jh315Kit64O2KbCH2R6c-23">
                    <mxGeometry width="50" height="50" relative="1" as="geometry">
                        <mxPoint x="320" y="470" as="sourcePoint"/>
                        <mxPoint x="370" y="420" as="targetPoint"/>
                    </mxGeometry>
                </mxCell>
                <mxCell id="jh315Kit64O2KbCH2R6c-35" value="Delete/create/update article" style="edgeLabel;html=1;align=center;verticalAlign=middle;resizable=0;points=[];" vertex="1" connectable="0" parent="jh315Kit64O2KbCH2R6c-30">
                    <mxGeometry x="0.3902" y="-1" relative="1" as="geometry">
                        <mxPoint x="59" y="3" as="offset"/>
                    </mxGeometry>
                </mxCell>
                <mxCell id="jh315Kit64O2KbCH2R6c-31" value="" style="endArrow=classic;html=1;entryX=0;entryY=0.333;entryDx=0;entryDy=0;entryPerimeter=0;" edge="1" parent="sQehPe5pb8-Fc1ebHOuA-1" target="jh315Kit64O2KbCH2R6c-26">
                    <mxGeometry width="50" height="50" relative="1" as="geometry">
                        <mxPoint x="80" y="520" as="sourcePoint"/>
                        <mxPoint x="370" y="420" as="targetPoint"/>
                    </mxGeometry>
                </mxCell>
                <mxCell id="jh315Kit64O2KbCH2R6c-36" value="User details" style="edgeLabel;html=1;align=center;verticalAlign=middle;resizable=0;points=[];" vertex="1" connectable="0" parent="jh315Kit64O2KbCH2R6c-31">
                    <mxGeometry x="-0.0917" y="1" relative="1" as="geometry">
                        <mxPoint as="offset"/>
                    </mxGeometry>
                </mxCell>
                <mxCell id="jh315Kit64O2KbCH2R6c-32" value="" style="endArrow=classic;html=1;exitX=0;exitY=0.5;exitDx=0;exitDy=0;" edge="1" parent="sQehPe5pb8-Fc1ebHOuA-1" source="jh315Kit64O2KbCH2R6c-26">
                    <mxGeometry width="50" height="50" relative="1" as="geometry">
                        <mxPoint x="320" y="470" as="sourcePoint"/>
                        <mxPoint x="80" y="530" as="targetPoint"/>
                    </mxGeometry>
                </mxCell>
                <mxCell id="jh315Kit64O2KbCH2R6c-37" value="modify subscriptions" style="edgeLabel;html=1;align=center;verticalAlign=middle;resizable=0;points=[];" vertex="1" connectable="0" parent="jh315Kit64O2KbCH2R6c-32">
                    <mxGeometry x="0.1833" y="2" relative="1" as="geometry">
                        <mxPoint as="offset"/>
                    </mxGeometry>
                </mxCell>
                <mxCell id="jh315Kit64O2KbCH2R6c-33" value="" style="endArrow=classic;html=1;exitX=-0.008;exitY=0.683;exitDx=0;exitDy=0;exitPerimeter=0;" edge="1" parent="sQehPe5pb8-Fc1ebHOuA-1" source="jh315Kit64O2KbCH2R6c-27">
                    <mxGeometry width="50" height="50" relative="1" as="geometry">
                        <mxPoint x="320" y="470" as="sourcePoint"/>
                        <mxPoint x="80" y="620" as="targetPoint"/>
                    </mxGeometry>
                </mxCell>
                <mxCell id="jh315Kit64O2KbCH2R6c-39" value="Account deleted" style="edgeLabel;html=1;align=center;verticalAlign=middle;resizable=0;points=[];" vertex="1" connectable="0" parent="jh315Kit64O2KbCH2R6c-33">
                    <mxGeometry x="0.1549" y="2" relative="1" as="geometry">
                        <mxPoint as="offset"/>
                    </mxGeometry>
                </mxCell>
                <mxCell id="jh315Kit64O2KbCH2R6c-40" value="ebs/user" style="shape=partialRectangle;whiteSpace=wrap;html=1;left=0;right=0;fillColor=none;" vertex="1" parent="sQehPe5pb8-Fc1ebHOuA-1">
                    <mxGeometry x="710" y="160" width="120" height="40" as="geometry"/>
                </mxCell>
                <mxCell id="jh315Kit64O2KbCH2R6c-41" value="" style="endArrow=classic;html=1;exitX=0.983;exitY=0.4;exitDx=0;exitDy=0;exitPerimeter=0;entryX=0.608;entryY=-0.025;entryDx=0;entryDy=0;entryPerimeter=0;" edge="1" parent="sQehPe5pb8-Fc1ebHOuA-1" source="jh315Kit64O2KbCH2R6c-2" target="jh315Kit64O2KbCH2R6c-40">
                    <mxGeometry width="50" height="50" relative="1" as="geometry">
                        <mxPoint x="530" y="140" as="sourcePoint"/>
                        <mxPoint x="580" y="90" as="targetPoint"/>
                        <Array as="points">
                            <mxPoint x="783" y="54"/>
                        </Array>
                    </mxGeometry>
                </mxCell>
                <mxCell id="jh315Kit64O2KbCH2R6c-55" value="User info" style="edgeLabel;html=1;align=center;verticalAlign=middle;resizable=0;points=[];" vertex="1" connectable="0" parent="jh315Kit64O2KbCH2R6c-41">
                    <mxGeometry x="-0.4678" y="-2" relative="1" as="geometry">
                        <mxPoint as="offset"/>
                    </mxGeometry>
                </mxCell>
                <mxCell id="jh315Kit64O2KbCH2R6c-42" value="" style="endArrow=classic;html=1;entryX=1;entryY=0.667;entryDx=0;entryDy=0;entryPerimeter=0;exitX=0.5;exitY=0;exitDx=0;exitDy=0;" edge="1" parent="sQehPe5pb8-Fc1ebHOuA-1" source="jh315Kit64O2KbCH2R6c-40" target="jh315Kit64O2KbCH2R6c-2">
                    <mxGeometry width="50" height="50" relative="1" as="geometry">
                        <mxPoint x="530" y="140" as="sourcePoint"/>
                        <mxPoint x="580" y="90" as="targetPoint"/>
                        <Array as="points">
                            <mxPoint x="770" y="70"/>
                        </Array>
                    </mxGeometry>
                </mxCell>
                <mxCell id="jh315Kit64O2KbCH2R6c-56" value="Validate details" style="edgeLabel;html=1;align=center;verticalAlign=middle;resizable=0;points=[];" vertex="1" connectable="0" parent="jh315Kit64O2KbCH2R6c-42">
                    <mxGeometry x="0.0755" y="1" relative="1" as="geometry">
                        <mxPoint x="-95" as="offset"/>
                    </mxGeometry>
                </mxCell>
                <mxCell id="jh315Kit64O2KbCH2R6c-43" value="" style="endArrow=classic;html=1;exitX=1;exitY=0.5;exitDx=0;exitDy=0;entryX=0.317;entryY=0.05;entryDx=0;entryDy=0;entryPerimeter=0;" edge="1" parent="sQehPe5pb8-Fc1ebHOuA-1" source="jh315Kit64O2KbCH2R6c-4" target="jh315Kit64O2KbCH2R6c-40">
                    <mxGeometry width="50" height="50" relative="1" as="geometry">
                        <mxPoint x="620" y="140" as="sourcePoint"/>
                        <mxPoint x="670" y="90" as="targetPoint"/>
                        <Array as="points">
                            <mxPoint x="748" y="140"/>
                        </Array>
                    </mxGeometry>
                </mxCell>
                <mxCell id="jh315Kit64O2KbCH2R6c-57" value="User credentials" style="edgeLabel;html=1;align=center;verticalAlign=middle;resizable=0;points=[];" vertex="1" connectable="0" parent="jh315Kit64O2KbCH2R6c-43">
                    <mxGeometry x="-0.5545" y="3" relative="1" as="geometry">
                        <mxPoint x="62" y="3" as="offset"/>
                    </mxGeometry>
                </mxCell>
                <mxCell id="jh315Kit64O2KbCH2R6c-44" value="" style="endArrow=classic;html=1;entryX=0.967;entryY=0.75;entryDx=0;entryDy=0;entryPerimeter=0;exitX=0.25;exitY=0;exitDx=0;exitDy=0;" edge="1" parent="sQehPe5pb8-Fc1ebHOuA-1" source="jh315Kit64O2KbCH2R6c-40" target="jh315Kit64O2KbCH2R6c-4">
                    <mxGeometry width="50" height="50" relative="1" as="geometry">
                        <mxPoint x="620" y="140" as="sourcePoint"/>
                        <mxPoint x="670" y="90" as="targetPoint"/>
                        <Array as="points">
                            <mxPoint x="740" y="155"/>
                        </Array>
                    </mxGeometry>
                </mxCell>
                <mxCell id="jh315Kit64O2KbCH2R6c-58" value="Validate details" style="edgeLabel;html=1;align=center;verticalAlign=middle;resizable=0;points=[];" vertex="1" connectable="0" parent="jh315Kit64O2KbCH2R6c-44">
                    <mxGeometry x="0.561" y="1" relative="1" as="geometry">
                        <mxPoint x="72" as="offset"/>
                    </mxGeometry>
                </mxCell>
                <mxCell id="jh315Kit64O2KbCH2R6c-45" value="" style="endArrow=classic;html=1;exitX=0.992;exitY=0.4;exitDx=0;exitDy=0;exitPerimeter=0;" edge="1" parent="sQehPe5pb8-Fc1ebHOuA-1" source="jh315Kit64O2KbCH2R6c-5">
                    <mxGeometry width="50" height="50" relative="1" as="geometry">
                        <mxPoint x="620" y="350" as="sourcePoint"/>
                        <mxPoint x="729" y="200" as="targetPoint"/>
                        <Array as="points">
                            <mxPoint x="729" y="214"/>
                        </Array>
                    </mxGeometry>
                </mxCell>
                <mxCell id="jh315Kit64O2KbCH2R6c-60" value="subscription choice" style="edgeLabel;html=1;align=center;verticalAlign=middle;resizable=0;points=[];" vertex="1" connectable="0" parent="jh315Kit64O2KbCH2R6c-45">
                    <mxGeometry x="-0.3004" relative="1" as="geometry">
                        <mxPoint as="offset"/>
                    </mxGeometry>
                </mxCell>
                <mxCell id="jh315Kit64O2KbCH2R6c-46" value="" style="endArrow=classic;html=1;entryX=1.017;entryY=0.65;entryDx=0;entryDy=0;entryPerimeter=0;exitX=0.25;exitY=1;exitDx=0;exitDy=0;" edge="1" parent="sQehPe5pb8-Fc1ebHOuA-1" source="jh315Kit64O2KbCH2R6c-40" target="jh315Kit64O2KbCH2R6c-5">
                    <mxGeometry width="50" height="50" relative="1" as="geometry">
                        <mxPoint x="717" y="200" as="sourcePoint"/>
                        <mxPoint x="670" y="190" as="targetPoint"/>
                        <Array as="points">
                            <mxPoint x="740" y="229"/>
                        </Array>
                    </mxGeometry>
                </mxCell>
                <mxCell id="jh315Kit64O2KbCH2R6c-59" value="Retrive details" style="edgeLabel;html=1;align=center;verticalAlign=middle;resizable=0;points=[];" vertex="1" connectable="0" parent="jh315Kit64O2KbCH2R6c-46">
                    <mxGeometry x="0.2589" y="3" relative="1" as="geometry">
                        <mxPoint as="offset"/>
                    </mxGeometry>
                </mxCell>
                <mxCell id="jh315Kit64O2KbCH2R6c-47" value="" style="endArrow=classic;html=1;exitX=1;exitY=0.333;exitDx=0;exitDy=0;exitPerimeter=0;entryX=0.424;entryY=1.036;entryDx=0;entryDy=0;entryPerimeter=0;" edge="1" parent="sQehPe5pb8-Fc1ebHOuA-1" source="jh315Kit64O2KbCH2R6c-6" target="jh315Kit64O2KbCH2R6c-40">
                    <mxGeometry width="50" height="50" relative="1" as="geometry">
                        <mxPoint x="620" y="440" as="sourcePoint"/>
                        <mxPoint x="670" y="390" as="targetPoint"/>
                        <Array as="points">
                            <mxPoint x="761" y="290"/>
                        </Array>
                    </mxGeometry>
                </mxCell>
                <mxCell id="jh315Kit64O2KbCH2R6c-61" value="user credentials" style="edgeLabel;html=1;align=center;verticalAlign=middle;resizable=0;points=[];" vertex="1" connectable="0" parent="jh315Kit64O2KbCH2R6c-47">
                    <mxGeometry x="-0.1852" y="1" relative="1" as="geometry">
                        <mxPoint as="offset"/>
                    </mxGeometry>
                </mxCell>
                <mxCell id="jh315Kit64O2KbCH2R6c-48" value="" style="endArrow=classic;html=1;entryX=1;entryY=0.5;entryDx=0;entryDy=0;exitX=0.5;exitY=1;exitDx=0;exitDy=0;" edge="1" parent="sQehPe5pb8-Fc1ebHOuA-1" source="jh315Kit64O2KbCH2R6c-40" target="jh315Kit64O2KbCH2R6c-6">
                    <mxGeometry width="50" height="50" relative="1" as="geometry">
                        <mxPoint x="620" y="440" as="sourcePoint"/>
                        <mxPoint x="670" y="390" as="targetPoint"/>
                        <Array as="points">
                            <mxPoint x="770" y="300"/>
                        </Array>
                    </mxGeometry>
                </mxCell>
                <mxCell id="jh315Kit64O2KbCH2R6c-62" value="profile updated" style="edgeLabel;html=1;align=center;verticalAlign=middle;resizable=0;points=[];" vertex="1" connectable="0" parent="jh315Kit64O2KbCH2R6c-48">
                    <mxGeometry x="0.1778" y="3" relative="1" as="geometry">
                        <mxPoint as="offset"/>
                    </mxGeometry>
                </mxCell>
                <mxCell id="jh315Kit64O2KbCH2R6c-49" value="" style="endArrow=classic;html=1;entryX=0.25;entryY=0;entryDx=0;entryDy=0;exitX=1;exitY=0.5;exitDx=0;exitDy=0;" edge="1" parent="sQehPe5pb8-Fc1ebHOuA-1" source="jh315Kit64O2KbCH2R6c-25" target="jh315Kit64O2KbCH2R6c-69">
                    <mxGeometry width="50" height="50" relative="1" as="geometry">
                        <mxPoint x="620" y="440" as="sourcePoint"/>
                        <mxPoint x="670" y="390" as="targetPoint"/>
                        <Array as="points">
                            <mxPoint x="740" y="450"/>
                        </Array>
                    </mxGeometry>
                </mxCell>
                <mxCell id="jh315Kit64O2KbCH2R6c-63" value="Article details" style="edgeLabel;html=1;align=center;verticalAlign=middle;resizable=0;points=[];" vertex="1" connectable="0" parent="jh315Kit64O2KbCH2R6c-49">
                    <mxGeometry x="-0.4352" y="2" relative="1" as="geometry">
                        <mxPoint as="offset"/>
                    </mxGeometry>
                </mxCell>
                <mxCell id="jh315Kit64O2KbCH2R6c-50" value="" style="endArrow=classic;html=1;exitX=0.154;exitY=0.048;exitDx=0;exitDy=0;exitPerimeter=0;entryX=0.992;entryY=0.717;entryDx=0;entryDy=0;entryPerimeter=0;" edge="1" parent="sQehPe5pb8-Fc1ebHOuA-1" source="jh315Kit64O2KbCH2R6c-69" target="jh315Kit64O2KbCH2R6c-25">
                    <mxGeometry width="50" height="50" relative="1" as="geometry">
                        <mxPoint x="620" y="440" as="sourcePoint"/>
                        <mxPoint x="670" y="390" as="targetPoint"/>
                        <Array as="points">
                            <mxPoint x="728" y="460"/>
                        </Array>
                    </mxGeometry>
                </mxCell>
                <mxCell id="jh315Kit64O2KbCH2R6c-64" value="Article created/deleted/updated" style="edgeLabel;html=1;align=center;verticalAlign=middle;resizable=0;points=[];" vertex="1" connectable="0" parent="jh315Kit64O2KbCH2R6c-50">
                    <mxGeometry x="0.4716" y="3" relative="1" as="geometry">
                        <mxPoint x="51" y="-5" as="offset"/>
                    </mxGeometry>
                </mxCell>
                <mxCell id="jh315Kit64O2KbCH2R6c-51" value="" style="endArrow=classic;html=1;exitX=1;exitY=0.5;exitDx=0;exitDy=0;entryX=0;entryY=0.5;entryDx=0;entryDy=0;" edge="1" parent="sQehPe5pb8-Fc1ebHOuA-1" source="jh315Kit64O2KbCH2R6c-26" target="jh315Kit64O2KbCH2R6c-69">
                    <mxGeometry width="50" height="50" relative="1" as="geometry">
                        <mxPoint x="620" y="440" as="sourcePoint"/>
                        <mxPoint x="670" y="390" as="targetPoint"/>
                        <Array as="points"/>
                    </mxGeometry>
                </mxCell>
                <mxCell id="jh315Kit64O2KbCH2R6c-65" value="user credentials" style="edgeLabel;html=1;align=center;verticalAlign=middle;resizable=0;points=[];" vertex="1" connectable="0" parent="jh315Kit64O2KbCH2R6c-51">
                    <mxGeometry x="-0.5111" y="-2" relative="1" as="geometry">
                        <mxPoint as="offset"/>
                    </mxGeometry>
                </mxCell>
                <mxCell id="jh315Kit64O2KbCH2R6c-52" value="" style="endArrow=classic;html=1;entryX=1.025;entryY=0.683;entryDx=0;entryDy=0;entryPerimeter=0;exitX=0;exitY=0.75;exitDx=0;exitDy=0;" edge="1" parent="sQehPe5pb8-Fc1ebHOuA-1" source="jh315Kit64O2KbCH2R6c-69" target="jh315Kit64O2KbCH2R6c-26">
                    <mxGeometry width="50" height="50" relative="1" as="geometry">
                        <mxPoint x="620" y="440" as="sourcePoint"/>
                        <mxPoint x="670" y="390" as="targetPoint"/>
                        <Array as="points"/>
                    </mxGeometry>
                </mxCell>
                <mxCell id="jh315Kit64O2KbCH2R6c-66" value="subscription managed" style="edgeLabel;html=1;align=center;verticalAlign=middle;resizable=0;points=[];" vertex="1" connectable="0" parent="jh315Kit64O2KbCH2R6c-52">
                    <mxGeometry x="0.2402" y="1" relative="1" as="geometry">
                        <mxPoint as="offset"/>
                    </mxGeometry>
                </mxCell>
                <mxCell id="jh315Kit64O2KbCH2R6c-53" value="" style="endArrow=classic;html=1;entryX=0.5;entryY=1;entryDx=0;entryDy=0;exitX=1;exitY=0.5;exitDx=0;exitDy=0;" edge="1" parent="sQehPe5pb8-Fc1ebHOuA-1" source="jh315Kit64O2KbCH2R6c-27" target="jh315Kit64O2KbCH2R6c-69">
                    <mxGeometry width="50" height="50" relative="1" as="geometry">
                        <mxPoint x="620" y="440" as="sourcePoint"/>
                        <mxPoint x="670" y="390" as="targetPoint"/>
                        <Array as="points">
                            <mxPoint x="770" y="610"/>
                        </Array>
                    </mxGeometry>
                </mxCell>
                <mxCell id="jh315Kit64O2KbCH2R6c-67" value="User credentials" style="edgeLabel;html=1;align=center;verticalAlign=middle;resizable=0;points=[];" vertex="1" connectable="0" parent="jh315Kit64O2KbCH2R6c-53">
                    <mxGeometry x="-0.5071" y="3" relative="1" as="geometry">
                        <mxPoint as="offset"/>
                    </mxGeometry>
                </mxCell>
                <mxCell id="jh315Kit64O2KbCH2R6c-54" value="" style="endArrow=classic;html=1;exitX=0.591;exitY=1.024;exitDx=0;exitDy=0;exitPerimeter=0;entryX=0.992;entryY=0.667;entryDx=0;entryDy=0;entryPerimeter=0;" edge="1" parent="sQehPe5pb8-Fc1ebHOuA-1" source="jh315Kit64O2KbCH2R6c-69" target="jh315Kit64O2KbCH2R6c-27">
                    <mxGeometry width="50" height="50" relative="1" as="geometry">
                        <mxPoint x="620" y="440" as="sourcePoint"/>
                        <mxPoint x="590" y="610" as="targetPoint"/>
                        <Array as="points">
                            <mxPoint x="781" y="620"/>
                        </Array>
                    </mxGeometry>
                </mxCell>
                <mxCell id="jh315Kit64O2KbCH2R6c-68" value="Account deleted" style="edgeLabel;html=1;align=center;verticalAlign=middle;resizable=0;points=[];" vertex="1" connectable="0" parent="jh315Kit64O2KbCH2R6c-54">
                    <mxGeometry x="0.5441" y="3" relative="1" as="geometry">
                        <mxPoint as="offset"/>
                    </mxGeometry>
                </mxCell>
                <mxCell id="jh315Kit64O2KbCH2R6c-69" value="ebs/articles" style="shape=partialRectangle;whiteSpace=wrap;html=1;left=0;right=0;fillColor=none;" vertex="1" parent="sQehPe5pb8-Fc1ebHOuA-1">
                    <mxGeometry x="710" y="510" width="120" height="40" as="geometry"/>
                </mxCell>
                <mxCell id="jh315Kit64O2KbCH2R6c-72" value="5&lt;br&gt;Contact Us" style="ellipse;whiteSpace=wrap;html=1;" vertex="1" parent="sQehPe5pb8-Fc1ebHOuA-1">
                    <mxGeometry x="320" y="340" width="120" height="60" as="geometry"/>
                </mxCell>
                <mxCell id="jh315Kit64O2KbCH2R6c-73" value="ebs/contactus" style="shape=partialRectangle;whiteSpace=wrap;html=1;left=0;right=0;fillColor=none;" vertex="1" parent="sQehPe5pb8-Fc1ebHOuA-1">
                    <mxGeometry x="700" y="350" width="120" height="40" as="geometry"/>
                </mxCell>
                <mxCell id="jh315Kit64O2KbCH2R6c-74" value="" style="endArrow=classic;html=1;entryX=0;entryY=0.5;entryDx=0;entryDy=0;" edge="1" parent="sQehPe5pb8-Fc1ebHOuA-1" target="jh315Kit64O2KbCH2R6c-6">
                    <mxGeometry width="50" height="50" relative="1" as="geometry">
                        <mxPoint x="80" y="300" as="sourcePoint"/>
                        <mxPoint x="460" y="250" as="targetPoint"/>
                    </mxGeometry>
                </mxCell>
                <mxCell id="jh315Kit64O2KbCH2R6c-75" value="User credentials" style="edgeLabel;html=1;align=center;verticalAlign=middle;resizable=0;points=[];" vertex="1" connectable="0" parent="jh315Kit64O2KbCH2R6c-74">
                    <mxGeometry x="-0.5163" y="-2" relative="1" as="geometry">
                        <mxPoint x="62" y="-2" as="offset"/>
                    </mxGeometry>
                </mxCell>
                <mxCell id="jh315Kit64O2KbCH2R6c-76" value="" style="endArrow=classic;html=1;exitX=0;exitY=0.667;exitDx=0;exitDy=0;exitPerimeter=0;" edge="1" parent="sQehPe5pb8-Fc1ebHOuA-1" source="jh315Kit64O2KbCH2R6c-72">
                    <mxGeometry width="50" height="50" relative="1" as="geometry">
                        <mxPoint x="410" y="300" as="sourcePoint"/>
                        <mxPoint x="80" y="380" as="targetPoint"/>
                    </mxGeometry>
                </mxCell>
                <mxCell id="jh315Kit64O2KbCH2R6c-77" value="Message submitted" style="edgeLabel;html=1;align=center;verticalAlign=middle;resizable=0;points=[];" vertex="1" connectable="0" parent="jh315Kit64O2KbCH2R6c-76">
                    <mxGeometry x="0.3179" y="3" relative="1" as="geometry">
                        <mxPoint x="48" as="offset"/>
                    </mxGeometry>
                </mxCell>
                <mxCell id="jh315Kit64O2KbCH2R6c-78" value="" style="endArrow=classic;html=1;exitX=1;exitY=0.5;exitDx=0;exitDy=0;entryX=0;entryY=0.5;entryDx=0;entryDy=0;" edge="1" parent="sQehPe5pb8-Fc1ebHOuA-1" source="jh315Kit64O2KbCH2R6c-72" target="jh315Kit64O2KbCH2R6c-73">
                    <mxGeometry width="50" height="50" relative="1" as="geometry">
                        <mxPoint x="410" y="300" as="sourcePoint"/>
                        <mxPoint x="460" y="250" as="targetPoint"/>
                    </mxGeometry>
                </mxCell>
                <mxCell id="jh315Kit64O2KbCH2R6c-81" value="User details and message" style="edgeLabel;html=1;align=center;verticalAlign=middle;resizable=0;points=[];" vertex="1" connectable="0" parent="jh315Kit64O2KbCH2R6c-78">
                    <mxGeometry x="0.2158" y="-4" relative="1" as="geometry">
                        <mxPoint x="-8" y="-4" as="offset"/>
                    </mxGeometry>
                </mxCell>
                <mxCell id="jh315Kit64O2KbCH2R6c-80" value="" style="endArrow=classic;html=1;exitX=0;exitY=0.75;exitDx=0;exitDy=0;entryX=0.968;entryY=0.675;entryDx=0;entryDy=0;entryPerimeter=0;" edge="1" parent="sQehPe5pb8-Fc1ebHOuA-1" source="jh315Kit64O2KbCH2R6c-73" target="jh315Kit64O2KbCH2R6c-72">
                    <mxGeometry width="50" height="50" relative="1" as="geometry">
                        <mxPoint x="410" y="300" as="sourcePoint"/>
                        <mxPoint x="460" y="250" as="targetPoint"/>
                    </mxGeometry>
                </mxCell>
                <mxCell id="jh315Kit64O2KbCH2R6c-83" value="message submitted" style="edgeLabel;html=1;align=center;verticalAlign=middle;resizable=0;points=[];" vertex="1" connectable="0" parent="jh315Kit64O2KbCH2R6c-80">
                    <mxGeometry x="0.1266" y="-2" relative="1" as="geometry">
                        <mxPoint x="-21" y="2" as="offset"/>
                    </mxGeometry>
                </mxCell>
            </root>
        </mxGraphModel>
    </diagram>
    <diagram id="tK_nLQtXDVILRC5wQyq7" name="Page-3">
        <mxGraphModel dx="1171" dy="676" grid="1" gridSize="10" guides="1" tooltips="1" connect="1" arrows="1" fold="1" page="1" pageScale="1" pageWidth="850" pageHeight="1100" math="0" shadow="0">
            <root>
                <mxCell id="-Cjj_wVK1JQPcdZtByDq-0"/>
                <mxCell id="-Cjj_wVK1JQPcdZtByDq-1" parent="-Cjj_wVK1JQPcdZtByDq-0"/>
                <mxCell id="-Cjj_wVK1JQPcdZtByDq-2" value="user" style="whiteSpace=wrap;html=1;align=center;" vertex="1" parent="-Cjj_wVK1JQPcdZtByDq-1">
                    <mxGeometry x="210" y="150" width="100" height="40" as="geometry"/>
                </mxCell>
                <mxCell id="-Cjj_wVK1JQPcdZtByDq-3" value="user_id" style="ellipse;whiteSpace=wrap;html=1;align=center;fontStyle=4;" vertex="1" parent="-Cjj_wVK1JQPcdZtByDq-1">
                    <mxGeometry x="140" y="250" width="100" height="40" as="geometry"/>
                </mxCell>
                <mxCell id="-Cjj_wVK1JQPcdZtByDq-4" value="name" style="ellipse;whiteSpace=wrap;html=1;align=center;" vertex="1" parent="-Cjj_wVK1JQPcdZtByDq-1">
                    <mxGeometry x="60" y="190" width="100" height="40" as="geometry"/>
                </mxCell>
                <mxCell id="-Cjj_wVK1JQPcdZtByDq-7" value="password" style="ellipse;whiteSpace=wrap;html=1;align=center;" vertex="1" parent="-Cjj_wVK1JQPcdZtByDq-1">
                    <mxGeometry x="20" y="100" width="100" height="40" as="geometry"/>
                </mxCell>
                <mxCell id="-Cjj_wVK1JQPcdZtByDq-8" value="number" style="ellipse;whiteSpace=wrap;html=1;align=center;" vertex="1" parent="-Cjj_wVK1JQPcdZtByDq-1">
                    <mxGeometry x="50" y="50" width="100" height="40" as="geometry"/>
                </mxCell>
                <mxCell id="-Cjj_wVK1JQPcdZtByDq-9" value="house" style="ellipse;whiteSpace=wrap;html=1;align=center;" vertex="1" parent="-Cjj_wVK1JQPcdZtByDq-1">
                    <mxGeometry x="120" width="100" height="40" as="geometry"/>
                </mxCell>
                <mxCell id="-Cjj_wVK1JQPcdZtByDq-10" value="street" style="ellipse;whiteSpace=wrap;html=1;align=center;" vertex="1" parent="-Cjj_wVK1JQPcdZtByDq-1">
                    <mxGeometry x="230" width="100" height="40" as="geometry"/>
                </mxCell>
                <mxCell id="-Cjj_wVK1JQPcdZtByDq-11" value="city" style="ellipse;whiteSpace=wrap;html=1;align=center;" vertex="1" parent="-Cjj_wVK1JQPcdZtByDq-1">
                    <mxGeometry x="330" y="10" width="100" height="40" as="geometry"/>
                </mxCell>
                <mxCell id="-Cjj_wVK1JQPcdZtByDq-12" value="state" style="ellipse;whiteSpace=wrap;html=1;align=center;" vertex="1" parent="-Cjj_wVK1JQPcdZtByDq-1">
                    <mxGeometry x="375" y="60" width="100" height="40" as="geometry"/>
                </mxCell>
                <mxCell id="-Cjj_wVK1JQPcdZtByDq-13" value="pin" style="ellipse;whiteSpace=wrap;html=1;align=center;" vertex="1" parent="-Cjj_wVK1JQPcdZtByDq-1">
                    <mxGeometry x="400" y="120" width="100" height="40" as="geometry"/>
                </mxCell>
                <mxCell id="-Cjj_wVK1JQPcdZtByDq-14" value="subscriber" style="ellipse;whiteSpace=wrap;html=1;align=center;" vertex="1" parent="-Cjj_wVK1JQPcdZtByDq-1">
                    <mxGeometry x="400" y="180" width="100" height="40" as="geometry"/>
                </mxCell>
                <mxCell id="-Cjj_wVK1JQPcdZtByDq-29" value="" style="endArrow=none;html=1;rounded=0;" edge="1" parent="-Cjj_wVK1JQPcdZtByDq-1" source="-Cjj_wVK1JQPcdZtByDq-3" target="-Cjj_wVK1JQPcdZtByDq-2">
                    <mxGeometry relative="1" as="geometry">
                        <mxPoint x="400" y="220" as="sourcePoint"/>
                        <mxPoint x="560" y="220" as="targetPoint"/>
                    </mxGeometry>
                </mxCell>
                <mxCell id="-Cjj_wVK1JQPcdZtByDq-30" value="" style="endArrow=none;html=1;rounded=0;entryX=0.921;entryY=1.026;entryDx=0;entryDy=0;entryPerimeter=0;" edge="1" parent="-Cjj_wVK1JQPcdZtByDq-1" source="-Cjj_wVK1JQPcdZtByDq-14" target="-Cjj_wVK1JQPcdZtByDq-2">
                    <mxGeometry relative="1" as="geometry">
                        <mxPoint x="400" y="220" as="sourcePoint"/>
                        <mxPoint x="560" y="220" as="targetPoint"/>
                    </mxGeometry>
                </mxCell>
                <mxCell id="-Cjj_wVK1JQPcdZtByDq-31" value="" style="endArrow=none;html=1;rounded=0;exitX=0.056;exitY=0.865;exitDx=0;exitDy=0;exitPerimeter=0;" edge="1" parent="-Cjj_wVK1JQPcdZtByDq-1" source="-Cjj_wVK1JQPcdZtByDq-13">
                    <mxGeometry relative="1" as="geometry">
                        <mxPoint x="400" y="220" as="sourcePoint"/>
                        <mxPoint x="310" y="180" as="targetPoint"/>
                    </mxGeometry>
                </mxCell>
                <mxCell id="-Cjj_wVK1JQPcdZtByDq-32" value="" style="endArrow=none;html=1;rounded=0;exitX=0.259;exitY=1.012;exitDx=0;exitDy=0;exitPerimeter=0;entryX=1;entryY=0.25;entryDx=0;entryDy=0;" edge="1" parent="-Cjj_wVK1JQPcdZtByDq-1" source="-Cjj_wVK1JQPcdZtByDq-12" target="-Cjj_wVK1JQPcdZtByDq-2">
                    <mxGeometry relative="1" as="geometry">
                        <mxPoint x="400" y="220" as="sourcePoint"/>
                        <mxPoint x="560" y="220" as="targetPoint"/>
                    </mxGeometry>
                </mxCell>
                <mxCell id="-Cjj_wVK1JQPcdZtByDq-33" value="" style="endArrow=none;html=1;rounded=0;exitX=1;exitY=0;exitDx=0;exitDy=0;" edge="1" parent="-Cjj_wVK1JQPcdZtByDq-1" source="-Cjj_wVK1JQPcdZtByDq-2" target="-Cjj_wVK1JQPcdZtByDq-11">
                    <mxGeometry relative="1" as="geometry">
                        <mxPoint x="400" y="220" as="sourcePoint"/>
                        <mxPoint x="560" y="220" as="targetPoint"/>
                    </mxGeometry>
                </mxCell>
                <mxCell id="-Cjj_wVK1JQPcdZtByDq-34" value="" style="endArrow=none;html=1;rounded=0;entryX=0;entryY=1;entryDx=0;entryDy=0;" edge="1" parent="-Cjj_wVK1JQPcdZtByDq-1" source="-Cjj_wVK1JQPcdZtByDq-4" target="-Cjj_wVK1JQPcdZtByDq-2">
                    <mxGeometry relative="1" as="geometry">
                        <mxPoint x="400" y="220" as="sourcePoint"/>
                        <mxPoint x="560" y="220" as="targetPoint"/>
                    </mxGeometry>
                </mxCell>
                <mxCell id="-Cjj_wVK1JQPcdZtByDq-35" value="" style="endArrow=none;html=1;rounded=0;entryX=0;entryY=0.5;entryDx=0;entryDy=0;" edge="1" parent="-Cjj_wVK1JQPcdZtByDq-1" target="-Cjj_wVK1JQPcdZtByDq-2">
                    <mxGeometry relative="1" as="geometry">
                        <mxPoint x="100" y="170" as="sourcePoint"/>
                        <mxPoint x="560" y="220" as="targetPoint"/>
                    </mxGeometry>
                </mxCell>
                <mxCell id="-Cjj_wVK1JQPcdZtByDq-36" value="" style="endArrow=none;html=1;rounded=0;entryX=0;entryY=0.25;entryDx=0;entryDy=0;" edge="1" parent="-Cjj_wVK1JQPcdZtByDq-1" source="-Cjj_wVK1JQPcdZtByDq-7" target="-Cjj_wVK1JQPcdZtByDq-2">
                    <mxGeometry relative="1" as="geometry">
                        <mxPoint x="400" y="220" as="sourcePoint"/>
                        <mxPoint x="560" y="220" as="targetPoint"/>
                    </mxGeometry>
                </mxCell>
                <mxCell id="-Cjj_wVK1JQPcdZtByDq-37" value="" style="endArrow=none;html=1;rounded=0;exitX=1;exitY=1;exitDx=0;exitDy=0;entryX=0;entryY=0;entryDx=0;entryDy=0;" edge="1" parent="-Cjj_wVK1JQPcdZtByDq-1" source="-Cjj_wVK1JQPcdZtByDq-8" target="-Cjj_wVK1JQPcdZtByDq-2">
                    <mxGeometry relative="1" as="geometry">
                        <mxPoint x="400" y="220" as="sourcePoint"/>
                        <mxPoint x="560" y="220" as="targetPoint"/>
                    </mxGeometry>
                </mxCell>
                <mxCell id="-Cjj_wVK1JQPcdZtByDq-38" value="" style="endArrow=none;html=1;rounded=0;exitX=0.432;exitY=1.041;exitDx=0;exitDy=0;exitPerimeter=0;entryX=0.1;entryY=0;entryDx=0;entryDy=0;entryPerimeter=0;" edge="1" parent="-Cjj_wVK1JQPcdZtByDq-1" source="-Cjj_wVK1JQPcdZtByDq-9" target="-Cjj_wVK1JQPcdZtByDq-2">
                    <mxGeometry relative="1" as="geometry">
                        <mxPoint x="400" y="220" as="sourcePoint"/>
                        <mxPoint x="210" y="120" as="targetPoint"/>
                    </mxGeometry>
                </mxCell>
                <mxCell id="-Cjj_wVK1JQPcdZtByDq-39" value="" style="endArrow=none;html=1;rounded=0;exitX=0.391;exitY=1.041;exitDx=0;exitDy=0;exitPerimeter=0;" edge="1" parent="-Cjj_wVK1JQPcdZtByDq-1" source="-Cjj_wVK1JQPcdZtByDq-10" target="-Cjj_wVK1JQPcdZtByDq-2">
                    <mxGeometry relative="1" as="geometry">
                        <mxPoint x="400" y="220" as="sourcePoint"/>
                        <mxPoint x="560" y="220" as="targetPoint"/>
                    </mxGeometry>
                </mxCell>
                <mxCell id="-Cjj_wVK1JQPcdZtByDq-40" value="articles" style="whiteSpace=wrap;html=1;align=center;" vertex="1" parent="-Cjj_wVK1JQPcdZtByDq-1">
                    <mxGeometry x="220" y="450" width="100" height="40" as="geometry"/>
                </mxCell>
                <mxCell id="-Cjj_wVK1JQPcdZtByDq-41" value="articles_id" style="ellipse;whiteSpace=wrap;html=1;align=center;fontStyle=4;" vertex="1" parent="-Cjj_wVK1JQPcdZtByDq-1">
                    <mxGeometry x="50" y="450" width="100" height="40" as="geometry"/>
                </mxCell>
                <mxCell id="-Cjj_wVK1JQPcdZtByDq-42" value="headline" style="ellipse;whiteSpace=wrap;html=1;align=center;" vertex="1" parent="-Cjj_wVK1JQPcdZtByDq-1">
                    <mxGeometry x="70" y="390" width="100" height="40" as="geometry"/>
                </mxCell>
                <mxCell id="-Cjj_wVK1JQPcdZtByDq-43" value="subtext" style="ellipse;whiteSpace=wrap;html=1;align=center;" vertex="1" parent="-Cjj_wVK1JQPcdZtByDq-1">
                    <mxGeometry x="120" y="340" width="100" height="40" as="geometry"/>
                </mxCell>
                <mxCell id="-Cjj_wVK1JQPcdZtByDq-44" value="detailed" style="ellipse;whiteSpace=wrap;html=1;align=center;" vertex="1" parent="-Cjj_wVK1JQPcdZtByDq-1">
                    <mxGeometry x="90" y="570" width="100" height="40" as="geometry"/>
                </mxCell>
                <mxCell id="-Cjj_wVK1JQPcdZtByDq-45" value="date" style="ellipse;whiteSpace=wrap;html=1;align=center;" vertex="1" parent="-Cjj_wVK1JQPcdZtByDq-1">
                    <mxGeometry x="200" y="580" width="100" height="40" as="geometry"/>
                </mxCell>
                <mxCell id="-Cjj_wVK1JQPcdZtByDq-47" value="image" style="ellipse;whiteSpace=wrap;html=1;align=center;" vertex="1" parent="-Cjj_wVK1JQPcdZtByDq-1">
                    <mxGeometry x="350" y="570" width="100" height="40" as="geometry"/>
                </mxCell>
                <mxCell id="-Cjj_wVK1JQPcdZtByDq-48" value="" style="endArrow=none;html=1;rounded=0;entryX=0;entryY=0.75;entryDx=0;entryDy=0;exitX=1;exitY=0.5;exitDx=0;exitDy=0;" edge="1" parent="-Cjj_wVK1JQPcdZtByDq-1" source="-Cjj_wVK1JQPcdZtByDq-41" target="-Cjj_wVK1JQPcdZtByDq-40">
                    <mxGeometry relative="1" as="geometry">
                        <mxPoint y="490" as="sourcePoint"/>
                        <mxPoint x="160" y="490" as="targetPoint"/>
                    </mxGeometry>
                </mxCell>
                <mxCell id="-Cjj_wVK1JQPcdZtByDq-49" value="" style="endArrow=none;html=1;rounded=0;entryX=0;entryY=0.25;entryDx=0;entryDy=0;exitX=1;exitY=1;exitDx=0;exitDy=0;" edge="1" parent="-Cjj_wVK1JQPcdZtByDq-1" source="-Cjj_wVK1JQPcdZtByDq-42" target="-Cjj_wVK1JQPcdZtByDq-40">
                    <mxGeometry relative="1" as="geometry">
                        <mxPoint y="490" as="sourcePoint"/>
                        <mxPoint x="160" y="490" as="targetPoint"/>
                    </mxGeometry>
                </mxCell>
                <mxCell id="-Cjj_wVK1JQPcdZtByDq-50" value="" style="endArrow=none;html=1;rounded=0;entryX=0;entryY=0;entryDx=0;entryDy=0;exitX=0.7;exitY=1;exitDx=0;exitDy=0;exitPerimeter=0;" edge="1" parent="-Cjj_wVK1JQPcdZtByDq-1" source="-Cjj_wVK1JQPcdZtByDq-43" target="-Cjj_wVK1JQPcdZtByDq-40">
                    <mxGeometry relative="1" as="geometry">
                        <mxPoint y="490" as="sourcePoint"/>
                        <mxPoint x="160" y="490" as="targetPoint"/>
                    </mxGeometry>
                </mxCell>
                <mxCell id="-Cjj_wVK1JQPcdZtByDq-51" value="" style="endArrow=none;html=1;rounded=0;entryX=0.25;entryY=1;entryDx=0;entryDy=0;" edge="1" parent="-Cjj_wVK1JQPcdZtByDq-1" source="-Cjj_wVK1JQPcdZtByDq-44" target="-Cjj_wVK1JQPcdZtByDq-40">
                    <mxGeometry relative="1" as="geometry">
                        <mxPoint y="490" as="sourcePoint"/>
                        <mxPoint x="160" y="490" as="targetPoint"/>
                    </mxGeometry>
                </mxCell>
                <mxCell id="-Cjj_wVK1JQPcdZtByDq-52" value="" style="endArrow=none;html=1;rounded=0;exitX=0.347;exitY=0.064;exitDx=0;exitDy=0;exitPerimeter=0;" edge="1" parent="-Cjj_wVK1JQPcdZtByDq-1" source="-Cjj_wVK1JQPcdZtByDq-45">
                    <mxGeometry relative="1" as="geometry">
                        <mxPoint y="490" as="sourcePoint"/>
                        <mxPoint x="280" y="490" as="targetPoint"/>
                    </mxGeometry>
                </mxCell>
                <mxCell id="-Cjj_wVK1JQPcdZtByDq-53" value="" style="endArrow=none;html=1;rounded=0;entryX=0.75;entryY=1;entryDx=0;entryDy=0;exitX=0;exitY=0.5;exitDx=0;exitDy=0;" edge="1" parent="-Cjj_wVK1JQPcdZtByDq-1" source="-Cjj_wVK1JQPcdZtByDq-47" target="-Cjj_wVK1JQPcdZtByDq-40">
                    <mxGeometry relative="1" as="geometry">
                        <mxPoint y="490" as="sourcePoint"/>
                        <mxPoint x="160" y="490" as="targetPoint"/>
                    </mxGeometry>
                </mxCell>
                <mxCell id="-Cjj_wVK1JQPcdZtByDq-55" value="contactus" style="whiteSpace=wrap;html=1;align=center;" vertex="1" parent="-Cjj_wVK1JQPcdZtByDq-1">
                    <mxGeometry x="570" y="460" width="100" height="40" as="geometry"/>
                </mxCell>
                <mxCell id="-Cjj_wVK1JQPcdZtByDq-56" value="&lt;span style=&quot;border-bottom: 1px dotted&quot;&gt;email&lt;/span&gt;" style="ellipse;whiteSpace=wrap;html=1;align=center;" vertex="1" parent="-Cjj_wVK1JQPcdZtByDq-1">
                    <mxGeometry y="150" width="100" height="40" as="geometry"/>
                </mxCell>
                <mxCell id="-Cjj_wVK1JQPcdZtByDq-57" value="contactus_id" style="ellipse;whiteSpace=wrap;html=1;align=center;fontStyle=4;" vertex="1" parent="-Cjj_wVK1JQPcdZtByDq-1">
                    <mxGeometry x="730" y="390" width="100" height="40" as="geometry"/>
                </mxCell>
                <mxCell id="-Cjj_wVK1JQPcdZtByDq-58" value="name" style="ellipse;whiteSpace=wrap;html=1;align=center;" vertex="1" parent="-Cjj_wVK1JQPcdZtByDq-1">
                    <mxGeometry x="620" y="350" width="100" height="40" as="geometry"/>
                </mxCell>
                <mxCell id="-Cjj_wVK1JQPcdZtByDq-59" value="email" style="ellipse;whiteSpace=wrap;html=1;align=center;" vertex="1" parent="-Cjj_wVK1JQPcdZtByDq-1">
                    <mxGeometry x="500" y="560" width="100" height="40" as="geometry"/>
                </mxCell>
                <mxCell id="-Cjj_wVK1JQPcdZtByDq-60" value="concern" style="ellipse;whiteSpace=wrap;html=1;align=center;" vertex="1" parent="-Cjj_wVK1JQPcdZtByDq-1">
                    <mxGeometry x="620" y="570" width="100" height="40" as="geometry"/>
                </mxCell>
                <mxCell id="-Cjj_wVK1JQPcdZtByDq-61" value="message" style="ellipse;whiteSpace=wrap;html=1;align=center;" vertex="1" parent="-Cjj_wVK1JQPcdZtByDq-1">
                    <mxGeometry x="740" y="510" width="100" height="40" as="geometry"/>
                </mxCell>
                <mxCell id="-Cjj_wVK1JQPcdZtByDq-62" value="" style="endArrow=none;html=1;rounded=0;exitX=0;exitY=1;exitDx=0;exitDy=0;" edge="1" parent="-Cjj_wVK1JQPcdZtByDq-1" source="-Cjj_wVK1JQPcdZtByDq-57" target="-Cjj_wVK1JQPcdZtByDq-55">
                    <mxGeometry relative="1" as="geometry">
                        <mxPoint x="590" y="370" as="sourcePoint"/>
                        <mxPoint x="750" y="370" as="targetPoint"/>
                    </mxGeometry>
                </mxCell>
                <mxCell id="-Cjj_wVK1JQPcdZtByDq-63" value="" style="endArrow=none;html=1;rounded=0;exitX=0.5;exitY=1;exitDx=0;exitDy=0;entryX=0.5;entryY=0;entryDx=0;entryDy=0;" edge="1" parent="-Cjj_wVK1JQPcdZtByDq-1" source="-Cjj_wVK1JQPcdZtByDq-58" target="-Cjj_wVK1JQPcdZtByDq-55">
                    <mxGeometry relative="1" as="geometry">
                        <mxPoint x="590" y="370" as="sourcePoint"/>
                        <mxPoint x="750" y="370" as="targetPoint"/>
                    </mxGeometry>
                </mxCell>
                <mxCell id="-Cjj_wVK1JQPcdZtByDq-64" value="" style="endArrow=none;html=1;rounded=0;exitX=0.709;exitY=0.012;exitDx=0;exitDy=0;exitPerimeter=0;entryX=0.25;entryY=1;entryDx=0;entryDy=0;" edge="1" parent="-Cjj_wVK1JQPcdZtByDq-1" source="-Cjj_wVK1JQPcdZtByDq-59" target="-Cjj_wVK1JQPcdZtByDq-55">
                    <mxGeometry relative="1" as="geometry">
                        <mxPoint x="590" y="370" as="sourcePoint"/>
                        <mxPoint x="750" y="370" as="targetPoint"/>
                    </mxGeometry>
                </mxCell>
                <mxCell id="-Cjj_wVK1JQPcdZtByDq-65" value="" style="endArrow=none;html=1;rounded=0;exitX=0.415;exitY=0.056;exitDx=0;exitDy=0;exitPerimeter=0;entryX=0.644;entryY=0.982;entryDx=0;entryDy=0;entryPerimeter=0;" edge="1" parent="-Cjj_wVK1JQPcdZtByDq-1" source="-Cjj_wVK1JQPcdZtByDq-60" target="-Cjj_wVK1JQPcdZtByDq-55">
                    <mxGeometry relative="1" as="geometry">
                        <mxPoint x="590" y="370" as="sourcePoint"/>
                        <mxPoint x="750" y="370" as="targetPoint"/>
                    </mxGeometry>
                </mxCell>
                <mxCell id="-Cjj_wVK1JQPcdZtByDq-66" value="" style="endArrow=none;html=1;rounded=0;exitX=1;exitY=0.75;exitDx=0;exitDy=0;entryX=0;entryY=0.25;entryDx=0;entryDy=0;entryPerimeter=0;" edge="1" parent="-Cjj_wVK1JQPcdZtByDq-1" source="-Cjj_wVK1JQPcdZtByDq-55" target="-Cjj_wVK1JQPcdZtByDq-61">
                    <mxGeometry relative="1" as="geometry">
                        <mxPoint x="590" y="370" as="sourcePoint"/>
                        <mxPoint x="750" y="370" as="targetPoint"/>
                    </mxGeometry>
                </mxCell>
                <mxCell id="OUBMUg94L3pvsg8Z_EHf-1" value="view" style="shape=rhombus;perimeter=rhombusPerimeter;whiteSpace=wrap;html=1;align=center;" vertex="1" parent="-Cjj_wVK1JQPcdZtByDq-1">
                    <mxGeometry x="210" y="280" width="120" height="60" as="geometry"/>
                </mxCell>
                <mxCell id="OUBMUg94L3pvsg8Z_EHf-2" value="category" style="ellipse;whiteSpace=wrap;html=1;align=center;" vertex="1" parent="-Cjj_wVK1JQPcdZtByDq-1">
                    <mxGeometry x="20" y="520" width="100" height="40" as="geometry"/>
                </mxCell>
                <mxCell id="OUBMUg94L3pvsg8Z_EHf-3" value="" style="endArrow=none;html=1;rounded=0;exitX=1;exitY=0;exitDx=0;exitDy=0;entryX=0;entryY=1;entryDx=0;entryDy=0;" edge="1" parent="-Cjj_wVK1JQPcdZtByDq-1" source="OUBMUg94L3pvsg8Z_EHf-2" target="-Cjj_wVK1JQPcdZtByDq-40">
                    <mxGeometry relative="1" as="geometry">
                        <mxPoint x="490" y="420" as="sourcePoint"/>
                        <mxPoint x="650" y="420" as="targetPoint"/>
                    </mxGeometry>
                </mxCell>
                <mxCell id="OUBMUg94L3pvsg8Z_EHf-4" value="" style="endArrow=none;html=1;rounded=0;exitX=0.5;exitY=1;exitDx=0;exitDy=0;entryX=0.5;entryY=0;entryDx=0;entryDy=0;" edge="1" parent="-Cjj_wVK1JQPcdZtByDq-1" source="OUBMUg94L3pvsg8Z_EHf-1" target="-Cjj_wVK1JQPcdZtByDq-40">
                    <mxGeometry relative="1" as="geometry">
                        <mxPoint x="510" y="450" as="sourcePoint"/>
                        <mxPoint x="670" y="450" as="targetPoint"/>
                    </mxGeometry>
                </mxCell>
                <mxCell id="OUBMUg94L3pvsg8Z_EHf-5" value="" style="endArrow=none;html=1;rounded=0;exitX=0.5;exitY=0;exitDx=0;exitDy=0;entryX=0.619;entryY=1.064;entryDx=0;entryDy=0;entryPerimeter=0;" edge="1" parent="-Cjj_wVK1JQPcdZtByDq-1" source="OUBMUg94L3pvsg8Z_EHf-1" target="-Cjj_wVK1JQPcdZtByDq-2">
                    <mxGeometry relative="1" as="geometry">
                        <mxPoint x="510" y="450" as="sourcePoint"/>
                        <mxPoint x="670" y="450" as="targetPoint"/>
                    </mxGeometry>
                </mxCell>
            </root>
        </mxGraphModel>
    </diagram>
</mxfile>